<svg width="40" height="40" viewBox="0 0 40 40" fill="none" xmlns="http://www.w3.org/2000/svg">
<path d="M38.125 31.25H34.4506C34.8086 30.7484 35.0007 30.1475 35 29.5312V23.125H33.75V29.5312C33.7495 29.9869 33.5682 30.4238 33.246 30.746C32.9238 31.0682 32.4869 31.2495 32.0312 31.25H30V20H33.75V21.875H35V20H36.0938C36.4666 19.9996 36.824 19.8513 37.0876 19.5876C37.3513 19.324 37.4996 18.9666 37.5 18.5938V16.875C37.5 16.7092 37.4342 16.5503 37.3169 16.4331C37.1997 16.3158 37.0408 16.25 36.875 16.25H35.625V13.75C35.625 13.6891 35.6161 13.6286 35.5987 13.5703L33.75 7.40828V4.98836C33.75 4.9843 33.75 4.98055 33.75 4.97609V4.97109C33.7467 4.89667 33.73 4.82344 33.7008 4.75492L32.4553 1.64289C32.4089 1.52691 32.3288 1.42749 32.2254 1.35746C32.122 1.28743 31.9999 1.25 31.875 1.25H28.125C27.9592 1.25 27.8003 1.31585 27.6831 1.43306C27.5658 1.55027 27.5 1.70924 27.5 1.875V2.5H26.25V3.75H27.5V4.375C27.5 4.47986 27.5264 4.58304 27.5767 4.67503C27.6271 4.76702 27.6997 4.84487 27.788 4.90141L26.941 6.59547L28.059 7.15453L28.9773 5.31797L29.375 5.45078V7.37969L26.9197 13.5179C26.8902 13.5917 26.875 13.6705 26.875 13.75V16.25H25V7.65625C24.9996 7.28342 24.8513 6.92599 24.5876 6.66236C24.324 6.39873 23.9666 6.25043 23.5938 6.25H23.125V3.125C23.125 2.95924 23.0592 2.80027 22.9419 2.68306C22.8247 2.56585 22.6658 2.5 22.5 2.5H20C19.8342 2.5 19.6753 2.56585 19.5581 2.68306C19.4408 2.80027 19.375 2.95924 19.375 3.125V6.25H18.9062C18.5334 6.25043 18.176 6.39873 17.9124 6.66236C17.6487 6.92599 17.5004 7.28342 17.5 7.65625V16.25H15.625V10H15.5904C15.3457 8.91156 13.8302 8.125 11.875 8.125C10.3191 8.125 9.04172 8.62313 8.46156 9.375H5C4.83424 9.375 4.67527 9.44085 4.55806 9.55806C4.44085 9.67527 4.375 9.83424 4.375 10V16.25H3.125C2.95924 16.25 2.80027 16.3158 2.68306 16.4331C2.56585 16.5503 2.5 16.7092 2.5 16.875V18.5938C2.50043 18.9666 2.64873 19.324 2.91236 19.5876C3.17599 19.8513 3.53342 19.9996 3.90625 20H5V29.5312C4.99932 30.1475 5.19142 30.7484 5.54937 31.25H1.875C1.70924 31.25 1.55027 31.3158 1.43306 31.4331C1.31585 31.5503 1.25 31.7092 1.25 31.875V32.8125C1.25066 33.3925 1.48134 33.9485 1.89143 34.3586C2.30153 34.7687 2.85754 34.9993 3.4375 35H6.58594C6.36628 35.38 6.25055 35.8112 6.25039 36.2501C6.25023 36.6891 6.36564 37.1203 6.58502 37.5005C6.8044 37.8807 7.12002 38.1964 7.50013 38.416C7.88024 38.6355 8.31145 38.7511 8.75039 38.7511C9.18934 38.7511 9.62054 38.6355 10.0007 38.416C10.3808 38.1964 10.6964 37.8807 10.9158 37.5005C11.1351 37.1203 11.2506 36.6891 11.2504 36.2501C11.2502 35.8112 11.1345 35.38 10.9148 35H13.125V33.75H3.4375C3.18894 33.7497 2.95064 33.6509 2.77488 33.4751C2.59913 33.2994 2.50027 33.0611 2.5 32.8125V32.5H37.5V32.8125C37.4997 33.0611 37.4009 33.2994 37.2251 33.4751C37.0494 33.6509 36.8111 33.7497 36.5625 33.75H14.375V35H29.0859C28.8663 35.38 28.7506 35.8112 28.7504 36.2501C28.7502 36.6891 28.8656 37.1203 29.085 37.5005C29.3044 37.8807 29.62 38.1964 30.0001 38.416C30.3802 38.6355 30.8114 38.7511 31.2504 38.7511C31.6893 38.7511 32.1205 38.6355 32.5007 38.416C32.8808 38.1964 33.1964 37.8807 33.4158 37.5005C33.6351 37.1203 33.7506 36.6891 33.7504 36.2501C33.7502 35.8112 33.6345 35.38 33.4148 35H36.5625C37.1425 34.9993 37.6985 34.7687 38.1086 34.3586C38.5187 33.9485 38.7493 33.3925 38.75 32.8125V31.875C38.75 31.7092 38.6842 31.5503 38.5669 31.4331C38.4497 31.3158 38.2908 31.25 38.125 31.25ZM10 36.25C10 36.4972 9.92669 36.7389 9.78934 36.9445C9.65199 37.15 9.45676 37.3102 9.22835 37.4049C8.99995 37.4995 8.74861 37.5242 8.50614 37.476C8.26366 37.4277 8.04093 37.3087 7.86612 37.1339C7.6913 36.9591 7.57225 36.7363 7.52402 36.4939C7.47579 36.2514 7.50054 36.0001 7.59515 35.7716C7.68976 35.5432 7.84998 35.348 8.05554 35.2107C8.2611 35.0733 8.50277 35 8.75 35C9.0814 35.0004 9.39911 35.1322 9.63345 35.3666C9.86778 35.6009 9.99961 35.9186 10 36.25ZM12.1875 28.125C11.8632 28.1245 11.5429 28.1966 11.25 28.3359V26.25H19.375V28.3359C19.0821 28.1966 18.7618 28.1245 18.4375 28.125H12.1875ZM19.375 20V22.0859C19.0821 21.9466 18.7618 21.8745 18.4375 21.875H12.1875C11.8632 21.8745 11.5429 21.9466 11.25 22.0859V20H19.375ZM28.75 25H20.625V24.0625C20.6253 23.8139 20.7241 23.5756 20.8999 23.3999C21.0756 23.2241 21.3139 23.1253 21.5625 23.125H27.8125C28.0611 23.1253 28.2994 23.2241 28.4751 23.3999C28.6509 23.5756 28.7497 23.8139 28.75 24.0625V25ZM11.25 24.0625C11.2503 23.8139 11.3491 23.5756 11.5249 23.3999C11.7006 23.2241 11.9389 23.1253 12.1875 23.125H18.4375C18.6861 23.1253 18.9244 23.2241 19.1001 23.3999C19.2759 23.5756 19.3747 23.8139 19.375 24.0625V25H11.25V24.0625ZM20.625 26.25H28.75V28.3359C28.4571 28.1966 28.1368 28.1245 27.8125 28.125H21.5625C21.2382 28.1245 20.9179 28.1966 20.625 28.3359V26.25ZM28.75 22.0859C28.4571 21.9466 28.1368 21.8745 27.8125 21.875H21.5625C21.2382 21.8745 20.9179 21.9466 20.625 22.0859V20H28.75V22.0859ZM30.625 5.625H32.5V6.875H30.625V5.625ZM28.75 2.5H31.4518L32.2018 4.375H30.1016L28.75 3.92453V2.5ZM28.125 13.8704L30.4232 8.125H32.66L34.375 13.8417V16.25H28.125V13.8704ZM18.75 10.625H23.75V13.125H18.75V10.625ZM20.625 3.75H21.875V6.25H20.625V3.75ZM18.9062 7.5H23.5938C23.6352 7.5 23.6749 7.51646 23.7042 7.54576C23.7335 7.57507 23.75 7.61481 23.75 7.65625V9.375H18.75V7.65625C18.75 7.61481 18.7665 7.57507 18.7958 7.54576C18.8251 7.51646 18.8648 7.5 18.9062 7.5ZM18.75 14.375H23.75V16.25H18.75V14.375ZM9.375 11.9702C10.029 12.3031 10.897 12.5 11.875 12.5C12.853 12.5 13.721 12.3031 14.375 11.9702V16.25H9.375V11.9702ZM11.875 9.375C13.4259 9.375 14.375 9.98203 14.375 10.3125C14.375 10.643 13.4259 11.25 11.875 11.25C10.3241 11.25 9.375 10.643 9.375 10.3125C9.375 9.98203 10.3241 9.375 11.875 9.375ZM5.625 10.625H8.125V16.25H5.625V10.625ZM3.75 18.5938V17.5H36.25V18.5938C36.25 18.6352 36.2335 18.6749 36.2042 18.7042C36.1749 18.7335 36.1352 18.75 36.0938 18.75H3.90625C3.86481 18.75 3.82507 18.7335 3.79576 18.7042C3.76646 18.6749 3.75 18.6352 3.75 18.5938ZM6.25 23.125H7.5V25H6.25V23.125ZM6.25 29.5312V26.25H8.125C8.29076 26.25 8.44973 26.1842 8.56694 26.0669C8.68415 25.9497 8.75 25.7908 8.75 25.625V22.5C8.75 22.3342 8.68415 22.1753 8.56694 22.0581C8.44973 21.9408 8.29076 21.875 8.125 21.875H6.25V20H10V31.25H7.96875C7.51307 31.2495 7.0762 31.0682 6.75398 30.746C6.43177 30.4238 6.25052 29.9869 6.25 29.5312ZM11.25 30.3125C11.2503 30.0639 11.3491 29.8256 11.5249 29.6499C11.7006 29.4741 11.9389 29.3753 12.1875 29.375H18.4375C18.6861 29.3753 18.9244 29.4741 19.1001 29.6499C19.2759 29.8256 19.3747 30.0639 19.375 30.3125V31.25H11.25V30.3125ZM20.625 30.3125C20.6253 30.0639 20.7241 29.8256 20.8999 29.6499C21.0756 29.4741 21.3139 29.3753 21.5625 29.375H27.8125C28.0611 29.3753 28.2994 29.4741 28.4751 29.6499C28.6509 29.8256 28.7497 30.0639 28.75 30.3125V31.25H20.625V30.3125ZM32.5 36.25C32.5 36.4972 32.4267 36.7389 32.2893 36.9445C32.152 37.15 31.9568 37.3102 31.7284 37.4049C31.4999 37.4995 31.2486 37.5242 31.0061 37.476C30.7637 37.4277 30.5409 37.3087 30.3661 37.1339C30.1913 36.9591 30.0723 36.7363 30.024 36.4939C29.9758 36.2514 30.0005 36.0001 30.0951 35.7716C30.1898 35.5432 30.35 35.348 30.5555 35.2107C30.7611 35.0733 31.0028 35 31.25 35C31.5814 35.0004 31.8991 35.1322 32.1334 35.3666C32.3678 35.6009 32.4996 35.9186 32.5 36.25Z" fill="#9B9B9B"/>
<path d="M33.125 13.125H29.375V14.375H33.125V13.125Z" fill="#9B9B9B"/>
</svg>
