<svg width="40" height="40" viewBox="0 0 40 40" fill="none" xmlns="http://www.w3.org/2000/svg">
<path d="M26.25 12.5C26.4158 12.5 26.5747 12.4342 26.6919 12.3169C26.8092 12.1997 26.875 12.0408 26.875 11.875C26.875 11.7092 26.8092 11.5503 26.6919 11.4331C26.5747 11.3158 26.4158 11.25 26.25 11.25H25V10H25.625C25.7908 10 25.9497 9.93415 26.0669 9.81694C26.1842 9.69973 26.25 9.54076 26.25 9.375C26.25 9.20924 26.1842 9.05027 26.0669 8.93306C25.9497 8.81585 25.7908 8.75 25.625 8.75H25C25 8.58424 24.9342 8.42527 24.8169 8.30806C24.6997 8.19085 24.5408 8.125 24.375 8.125V7.5C24.375 7.33424 24.3092 7.17527 24.1919 7.05806C24.0747 6.94085 23.9158 6.875 23.75 6.875C23.5842 6.875 23.4253 6.94085 23.3081 7.05806C23.1908 7.17527 23.125 7.33424 23.125 7.5V8.125H21.875V6.875C21.875 6.70924 21.8092 6.55027 21.6919 6.43306C21.5747 6.31585 21.4158 6.25 21.25 6.25C21.0842 6.25 20.9253 6.31585 20.8081 6.43306C20.6908 6.55027 20.625 6.70924 20.625 6.875V8.125H19.375V6.875C19.375 6.70924 19.3092 6.55027 19.1919 6.43306C19.0747 6.31585 18.9158 6.25 18.75 6.25C18.5842 6.25 18.4253 6.31585 18.3081 6.43306C18.1908 6.55027 18.125 6.70924 18.125 6.875V8.125H16.875V7.5C16.875 7.33424 16.8092 7.17527 16.6919 7.05806C16.5747 6.94085 16.4158 6.875 16.25 6.875C16.0842 6.875 15.9253 6.94085 15.8081 7.05806C15.6908 7.17527 15.625 7.33424 15.625 7.5V8.125C15.4592 8.125 15.3003 8.19085 15.1831 8.30806C15.0658 8.42527 15 8.58424 15 8.75H14.4531C14.2874 8.75 14.1284 8.81585 14.0112 8.93306C13.894 9.05027 13.8281 9.20924 13.8281 9.375C13.8281 9.54076 13.894 9.69973 14.0112 9.81694C14.1284 9.93415 14.2874 10 14.4531 10H15V11.25H13.75C13.5842 11.25 13.4253 11.3158 13.3081 11.4331C13.1908 11.5503 13.125 11.7092 13.125 11.875C13.125 12.0408 13.1908 12.1997 13.3081 12.3169C13.4253 12.4342 13.5842 12.5 13.75 12.5H15V13.75H13.75C13.5842 13.75 13.4253 13.8158 13.3081 13.9331C13.1908 14.0503 13.125 14.2092 13.125 14.375C13.125 14.5408 13.1908 14.6997 13.3081 14.8169C13.4253 14.9342 13.5842 15 13.75 15H15V16.25H14.375C14.2092 16.25 14.0503 16.3158 13.9331 16.4331C13.8158 16.5503 13.75 16.7092 13.75 16.875C13.75 17.0408 13.8158 17.1997 13.9331 17.3169C14.0503 17.4342 14.2092 17.5 14.375 17.5H15C15 17.6658 15.0658 17.8247 15.1831 17.9419C15.3003 18.0592 15.4592 18.125 15.625 18.125V18.75C15.625 18.9158 15.6908 19.0747 15.8081 19.1919C15.9253 19.3092 16.0842 19.375 16.25 19.375C16.4158 19.375 16.5747 19.3092 16.6919 19.1919C16.8092 19.0747 16.875 18.9158 16.875 18.75V18.125H18.125V19.375C18.125 19.5408 18.1908 19.6997 18.3081 19.8169C18.4253 19.9342 18.5842 20 18.75 20C18.9158 20 19.0747 19.9342 19.1919 19.8169C19.3092 19.6997 19.375 19.5408 19.375 19.375V18.125H20.625V19.375C20.625 19.5408 20.6908 19.6997 20.8081 19.8169C20.9253 19.9342 21.0842 20 21.25 20C21.4158 20 21.5747 19.9342 21.6919 19.8169C21.8092 19.6997 21.875 19.5408 21.875 19.375V18.125H23.125V18.75C23.125 18.9158 23.1908 19.0747 23.3081 19.1919C23.4253 19.3092 23.5842 19.375 23.75 19.375C23.9158 19.375 24.0747 19.3092 24.1919 19.1919C24.3092 19.0747 24.375 18.9158 24.375 18.75V18.125C24.5408 18.125 24.6997 18.0592 24.8169 17.9419C24.9342 17.8247 25 17.6658 25 17.5H25.5469C25.7126 17.5 25.8716 17.4342 25.9888 17.3169C26.106 17.1997 26.1719 17.0408 26.1719 16.875C26.1719 16.7092 26.106 16.5503 25.9888 16.4331C25.8716 16.3158 25.7126 16.25 25.5469 16.25H25V15H26.25C26.4158 15 26.5747 14.9342 26.6919 14.8169C26.8092 14.6997 26.875 14.5408 26.875 14.375C26.875 14.2092 26.8092 14.0503 26.6919 13.9331C26.5747 13.8158 26.4158 13.75 26.25 13.75H25V12.5H26.25ZM16.25 16.875V9.375H23.75V16.875H16.25Z" fill="#9B9B9B"/>
<path d="M22.4998 10H17.4998C17.334 10 17.175 10.0658 17.0578 10.1831C16.9406 10.3003 16.8748 10.4592 16.8748 10.625V15.625C16.8748 15.7908 16.9406 15.9497 17.0578 16.0669C17.175 16.1842 17.334 16.25 17.4998 16.25H22.4998C22.6655 16.25 22.8245 16.1842 22.9417 16.0669C23.0589 15.9497 23.1248 15.7908 23.1248 15.625V10.625C23.1248 10.4592 23.0589 10.3003 22.9417 10.1831C22.8245 10.0658 22.6655 10 22.4998 10ZM21.8748 15H18.1248V11.25H21.8748V15ZM4.26728 12.5C4.11984 12.083 3.82974 11.7315 3.44823 11.5077C3.06672 11.2839 2.61838 11.2022 2.18245 11.277C1.74651 11.3518 1.35105 11.5783 1.06596 11.9165C0.780874 12.2546 0.624512 12.6827 0.624512 13.125C0.624512 13.5673 0.780874 13.9954 1.06596 14.3335C1.35105 14.6717 1.74651 14.8982 2.18245 14.973C2.61838 15.0478 3.06672 14.9661 3.44823 14.7423C3.82974 14.5185 4.11984 14.167 4.26728 13.75H9.37478V12.5H4.26728ZM2.49978 13.75C2.37617 13.75 2.25533 13.7133 2.15255 13.6447C2.04977 13.576 1.96966 13.4784 1.92235 13.3642C1.87505 13.25 1.86267 13.1243 1.88679 13.0031C1.9109 12.8818 1.97043 12.7705 2.05784 12.6831C2.14524 12.5956 2.25661 12.5361 2.37785 12.512C2.49909 12.4879 2.62475 12.5003 2.73896 12.5476C2.85316 12.5949 2.95077 12.675 3.01945 12.7778C3.08812 12.8805 3.12478 13.0014 3.12478 13.125C3.12459 13.2907 3.05868 13.4496 2.94151 13.5667C2.82435 13.6839 2.66548 13.7498 2.49978 13.75ZM37.4998 11.25C37.1122 11.2505 36.7342 11.3709 36.4178 11.5947C36.1013 11.8185 35.8619 12.1347 35.7323 12.5H30.6248V13.75H35.7323C35.8469 14.0741 36.0483 14.3605 36.3147 14.5778C36.581 14.7951 36.902 14.935 37.2425 14.9822C37.583 15.0294 37.9299 14.9821 38.2454 14.8455C38.5608 14.7088 38.8326 14.4881 39.0311 14.2074C39.2295 13.9267 39.347 13.5969 39.3706 13.2539C39.3942 12.911 39.3232 12.5681 39.1651 12.2629C39.007 11.9576 38.7681 11.7017 38.4744 11.523C38.1807 11.3444 37.8435 11.25 37.4998 11.25ZM37.4998 13.75C37.3762 13.75 37.2553 13.7133 37.1525 13.6447C37.0498 13.576 36.9697 13.4784 36.9224 13.3642C36.875 13.25 36.8627 13.1243 36.8868 13.0031C36.9109 12.8818 36.9704 12.7705 37.0578 12.6831C37.1452 12.5956 37.2566 12.5361 37.3778 12.512C37.4991 12.4879 37.6248 12.5003 37.739 12.5476C37.8532 12.5949 37.9508 12.675 38.0194 12.7778C38.0881 12.8805 38.1248 13.0014 38.1248 13.125C38.1246 13.2907 38.0587 13.4496 37.9415 13.5667C37.8243 13.6839 37.6655 13.7498 37.4998 13.75Z" fill="#9B9B9B"/>
<path d="M35.0001 18.75C34.6125 18.7505 34.2346 18.8709 33.9182 19.0947C33.6018 19.3185 33.3624 19.6347 33.2329 20H32.5001V18.125C32.5001 17.9592 32.4342 17.8003 32.317 17.6831C32.1998 17.5659 32.0409 17.5 31.8751 17.5H29.6845C30.3048 16.1248 30.6255 14.6334 30.6251 13.1248C30.6247 11.6161 30.3032 10.1248 29.6821 8.75001H31.8751C32.0409 8.75001 32.1998 8.68416 32.317 8.56695C32.4342 8.44974 32.5001 8.29077 32.5001 8.12501V6.25001H33.2329C33.3803 6.66702 33.6704 7.01848 34.052 7.24228C34.4335 7.46608 34.8818 7.5478 35.3177 7.47301C35.7537 7.39821 36.1491 7.17171 36.4342 6.83355C36.7193 6.49538 36.8757 6.06731 36.8757 5.62501C36.8757 5.1827 36.7193 4.75464 36.4342 4.41647C36.1491 4.0783 35.7537 3.85181 35.3177 3.77701C34.8818 3.70222 34.4335 3.78394 34.052 4.00774C33.6704 4.23154 33.3803 4.583 33.2329 5.00001H31.8751C31.7093 5.00001 31.5504 5.06586 31.4331 5.18307C31.3159 5.30028 31.2501 5.45925 31.2501 5.62501V7.50001H29.0102C28.0564 5.97024 26.7287 4.70853 25.1523 3.83377C23.576 2.95901 21.8029 2.5 20.0001 2.5C18.1973 2.5 16.4242 2.95901 14.8478 3.83377C13.2715 4.70853 11.9438 5.97024 10.9899 7.50001H8.75009V5.62501C8.75009 5.45925 8.68424 5.30028 8.56703 5.18307C8.44982 5.06586 8.29085 5.00001 8.12509 5.00001H6.76728C6.61984 4.583 6.32974 4.23154 5.94823 4.00774C5.56672 3.78394 5.11838 3.70222 4.68245 3.77701C4.24651 3.85181 3.85105 4.0783 3.56596 4.41647C3.28087 4.75464 3.12451 5.1827 3.12451 5.62501C3.12451 6.06731 3.28087 6.49538 3.56596 6.83355C3.85105 7.17171 4.24651 7.39821 4.68245 7.47301C5.11838 7.5478 5.56672 7.46608 5.94823 7.24228C6.32974 7.01848 6.61984 6.66702 6.76728 6.25001H7.50009V8.12501C7.50009 8.29077 7.56594 8.44974 7.68315 8.56695C7.80036 8.68416 7.95933 8.75001 8.12509 8.75001H10.3181C9.69695 10.1248 9.37551 11.6161 9.37511 13.1248C9.3747 14.6334 9.69534 16.1248 10.3157 17.5H8.12509C7.95933 17.5 7.80036 17.5659 7.68315 17.6831C7.56594 17.8003 7.50009 17.9592 7.50009 18.125V20H6.76728C6.61984 19.583 6.32974 19.2315 5.94823 19.0077C5.56672 18.7839 5.11838 18.7022 4.68245 18.777C4.24651 18.8518 3.85105 19.0783 3.56596 19.4165C3.28087 19.7546 3.12451 20.1827 3.12451 20.625C3.12451 21.0673 3.28087 21.4954 3.56596 21.8335C3.85105 22.1717 4.24651 22.3982 4.68245 22.473C5.11838 22.5478 5.56672 22.4661 5.94823 22.2423C6.32974 22.0185 6.61984 21.667 6.76728 21.25H8.12509C8.29085 21.25 8.44982 21.1842 8.56703 21.0669C8.68424 20.9497 8.75009 20.7908 8.75009 20.625V18.75H10.986C11.0032 18.7774 11.0196 18.8055 11.0368 18.832C12.0207 20.3756 13.3857 21.6396 15.0001 22.5024V24.375H13.7501C13.5843 24.375 13.4254 24.4409 13.3081 24.5581C13.1909 24.6753 13.1251 24.8342 13.1251 25V27.5C13.1251 27.6658 13.1909 27.8247 13.3081 27.9419C13.4254 28.0592 13.5843 28.125 13.7501 28.125V32.5C13.7501 32.6658 13.8159 32.8247 13.9331 32.9419C14.0504 33.0592 14.2093 33.125 14.3751 33.125H15.0454C15.197 34.1656 15.7178 35.117 16.5127 35.8054C17.3076 36.4939 18.3235 36.8735 19.3751 36.875H20.6251C21.6767 36.8735 22.6926 36.4939 23.4875 35.8054C24.2824 35.117 24.8032 34.1656 24.9548 33.125H25.6251C25.7909 33.125 25.9498 33.0592 26.067 32.9419C26.1842 32.8247 26.2501 32.6658 26.2501 32.5V28.125C26.4159 28.125 26.5748 28.0592 26.692 27.9419C26.8092 27.8247 26.8751 27.6658 26.8751 27.5V25C26.8751 24.8342 26.8092 24.6753 26.692 24.5581C26.5748 24.4409 26.4159 24.375 26.2501 24.375H25.0001V22.5024C26.6145 21.6396 27.9795 20.3756 28.9634 18.832C28.9806 18.8055 28.997 18.7774 29.0142 18.75H31.2501V20.625C31.2501 20.7908 31.3159 20.9497 31.4331 21.0669C31.5504 21.1842 31.7093 21.25 31.8751 21.25H33.2329C33.3475 21.5741 33.549 21.8605 33.8154 22.0778C34.0817 22.2951 34.4027 22.435 34.7432 22.4822C35.0837 22.5295 35.4307 22.4821 35.7461 22.3455C36.0615 22.2088 36.3333 21.988 36.5318 21.7073C36.7302 21.4266 36.8476 21.0967 36.8712 20.7538C36.8949 20.4108 36.8237 20.0679 36.6656 19.7627C36.5075 19.4574 36.2685 19.2015 35.9748 19.0229C35.681 18.8443 35.3439 18.7499 35.0001 18.75ZM35.0001 5.00001C35.1237 5.00001 35.2445 5.03666 35.3473 5.10534C35.4501 5.17402 35.5302 5.27163 35.5775 5.38583C35.6248 5.50004 35.6372 5.6257 35.6131 5.74694C35.589 5.86818 35.5294 5.97954 35.442 6.06695C35.3546 6.15436 35.2433 6.21388 35.122 6.238C35.0008 6.26212 34.8751 6.24974 34.7609 6.20243C34.6467 6.15513 34.5491 6.07502 34.4804 5.97224C34.4117 5.86946 34.3751 5.74862 34.3751 5.62501C34.3753 5.45932 34.4412 5.30048 34.5584 5.18332C34.6756 5.06616 34.8344 5.00024 35.0001 5.00001ZM5.00009 6.25001C4.87648 6.25001 4.75564 6.21335 4.65286 6.14468C4.55008 6.076 4.46997 5.97839 4.42267 5.86419C4.37536 5.74998 4.36298 5.62432 4.3871 5.50308C4.41122 5.38184 4.47074 5.27048 4.55815 5.18307C4.64556 5.09566 4.75692 5.03613 4.87816 5.01202C4.9994 4.9879 5.12506 5.00028 5.23927 5.04758C5.35347 5.09489 5.45108 5.175 5.51976 5.27778C5.58844 5.38056 5.62509 5.5014 5.62509 5.62501C5.62486 5.7907 5.55894 5.94954 5.44178 6.0667C5.32462 6.18386 5.16578 6.24978 5.00009 6.25001ZM5.00009 21.25C4.87648 21.25 4.75564 21.2134 4.65286 21.1447C4.55008 21.076 4.46997 20.9784 4.42267 20.8642C4.37536 20.75 4.36298 20.6243 4.3871 20.5031C4.41122 20.3818 4.47074 20.2705 4.55815 20.1831C4.64556 20.0957 4.75692 20.0361 4.87816 20.012C4.9994 19.9879 5.12506 20.0003 5.23927 20.0476C5.35347 20.0949 5.45108 20.175 5.51976 20.2778C5.58844 20.3806 5.62509 20.5014 5.62509 20.625C5.62486 20.7907 5.55894 20.9495 5.44178 21.0667C5.32462 21.1839 5.16578 21.2498 5.00009 21.25ZM20.6251 35.625H19.3751C18.655 35.6241 17.9571 35.375 17.3993 34.9196C16.8414 34.4642 16.4576 33.8304 16.3126 33.125H23.6876C23.5426 33.8304 23.1588 34.4642 22.6009 34.9196C22.0431 35.375 21.3452 35.6241 20.6251 35.625ZM25.0001 31.875H15.0001V28.125H17.5001V30C17.5001 30.1658 17.5659 30.3247 17.6831 30.4419C17.8004 30.5592 17.9593 30.625 18.1251 30.625H21.8751C22.0409 30.625 22.1998 30.5592 22.317 30.4419C22.4342 30.3247 22.5001 30.1658 22.5001 30V28.125H25.0001V31.875ZM18.7501 29.375V28.125H21.2501V29.375H18.7501ZM25.6251 25.625V26.875H14.3751V25.625H25.6251ZM27.9095 18.1602C26.9773 19.6221 25.6593 20.7979 24.1009 21.5578C23.9957 21.6093 23.9071 21.6892 23.8451 21.7885C23.7831 21.8878 23.7502 22.0025 23.7501 22.1195V24.375H16.2501V22.1195C16.25 22.0025 16.2171 21.8878 16.1551 21.7885C16.0931 21.6892 16.0045 21.6093 15.8993 21.5578C14.1909 20.7269 12.7753 19.3965 11.84 17.743C10.9047 16.0895 10.4938 14.1908 10.6617 12.2985C10.8296 10.4062 11.5684 8.60961 12.7803 7.14664C13.9922 5.68366 15.62 4.62338 17.448 4.10625C19.2759 3.58911 21.2179 3.63952 23.0166 4.25081C24.8153 4.86209 26.3858 6.0054 27.5202 7.52928C28.6546 9.05316 29.2992 10.8857 29.3687 12.7842C29.4382 14.6826 28.9293 16.5574 27.9095 18.1602ZM35.0001 21.25C34.8765 21.25 34.7556 21.2134 34.6529 21.1447C34.5501 21.076 34.47 20.9784 34.4227 20.8642C34.3754 20.75 34.363 20.6243 34.3871 20.5031C34.4112 20.3818 34.4707 20.2705 34.5581 20.1831C34.6456 20.0957 34.7569 20.0361 34.8782 20.012C34.9994 19.9879 35.1251 20.0003 35.2393 20.0476C35.3535 20.0949 35.4511 20.175 35.5198 20.2778C35.5884 20.3806 35.6251 20.5014 35.6251 20.625C35.6249 20.7907 35.5589 20.9495 35.4418 21.0667C35.3246 21.1839 35.1658 21.2498 35.0001 21.25Z" fill="#9B9B9B"/>
</svg>
