<svg width="40" height="40" viewBox="0 0 40 40" fill="none" xmlns="http://www.w3.org/2000/svg">
<g id="Lotion Cream" clip-path="url(#clip0_613_245)">
<g id="Group 507">
<path id="Vector" d="M39.3678 26.3576L21.997 26.3574C21.9826 26.7517 21.9585 27.1456 21.9247 27.5386L38.8161 27.5387V35.2162C38.8154 35.8425 38.5827 36.4429 38.169 36.8858C37.7553 37.3286 37.1944 37.5777 36.6093 37.5785L21.3158 37.5785C20.8076 37.5789 20.3149 37.3905 19.9219 37.0455C19.7025 37.3613 19.4707 37.6671 19.2273 37.9621C19.8165 38.4782 20.5545 38.7599 21.3158 38.7594L36.6093 38.7594C37.487 38.7584 38.3284 38.3847 38.949 37.7204C39.5695 37.0561 39.9186 36.1554 39.9196 35.2159V26.9482C39.9196 26.7915 39.8614 26.6413 39.758 26.5306C39.6545 26.4198 39.5142 26.3576 39.3678 26.3576Z" fill="#9B9B9B"/>
<path id="Vector_2" d="M15.6867 12.4272C15.7142 12.3582 15.7284 12.2845 15.7286 12.2101V9.85018C15.7281 9.38092 15.5438 8.93104 15.2162 8.59923C14.8886 8.26741 14.4444 8.08076 13.981 8.08021H13.162C13.1625 7.50674 13.1232 6.16068 13.1605 5.65241C13.178 5.4173 13.5499 5.07776 15.2245 4.79604C17.356 4.43821 19.5635 5.0869 21.2482 5.69223C21.3705 5.73629 21.5037 5.73772 21.6268 5.6963C21.7499 5.65488 21.8559 5.57298 21.9278 5.46361C22.2132 5.02997 22.4404 4.71492 22.6236 4.46181C22.7363 4.30576 22.831 4.17449 22.9096 4.05708C22.9739 3.96139 23.0089 3.84868 23.0104 3.73298C23.0119 3.61728 22.9798 3.50369 22.9181 3.40632C22.2211 2.30983 20.7822 1.9166 19.8303 1.65641C18.1077 1.18472 16.3907 1.2744 14.4861 1.42838L14.1331 1.45788C12.3129 1.60715 10.5932 1.74816 8.94115 1.32513L8.71746 1.26614C7.80985 1.02276 6.43884 0.657266 5.57755 1.69624C4.96239 2.43874 4.66704 3.71282 5.33143 4.61108C5.80795 5.25682 6.77992 5.58987 7.55849 5.68338L7.56111 8.08021H6.99051C6.52717 8.08076 6.08297 8.26741 5.75535 8.59923C5.42772 8.93104 5.24342 9.38092 5.24288 9.85018V12.2101C5.24313 12.2845 5.25737 12.3582 5.28482 12.4272C2.13123 15.0161 0 19.875 0 25.438C0 30.7228 1.88016 35.5144 5.02909 38.2552C5.3952 38.5777 5.86334 38.7566 6.34855 38.7593H14.6227C15.1079 38.7566 15.576 38.5779 15.9421 38.2555C19.0914 35.5144 20.9715 30.7228 20.9715 25.438C20.9715 19.875 18.8403 15.0158 15.6867 12.4272ZM6.26408 3.90398C5.97455 3.51222 6.14553 2.84642 6.4703 2.45467C6.82711 2.02398 7.5646 2.17796 8.42007 2.40688C9.35165 2.6498 10.3091 2.77631 11.271 2.78359C12.3761 2.79657 13.4786 2.6945 14.579 2.60482C16.3732 2.45968 17.984 2.37384 19.5268 2.79539C20.1909 2.97681 21.1442 3.23788 21.6927 3.75235L21.6831 3.76533C21.5509 3.94852 21.3959 4.16298 21.2124 4.43054C19.456 3.82728 17.2456 3.25941 15.0331 3.63229C14.0827 3.79217 12.1046 4.12493 11.9986 5.5645C11.9567 6.13443 11.9975 7.52267 11.9972 8.08021H8.72619L8.72328 5.1167C8.72115 5.03657 8.70331 4.95766 8.67081 4.88457C8.63831 4.81148 8.59179 4.74566 8.53396 4.69093C8.47613 4.6362 8.40814 4.59366 8.33393 4.56577C8.25973 4.53788 8.18079 4.52521 8.10171 4.52848C7.57509 4.56476 6.56962 4.31785 6.26408 3.90398ZM6.40797 9.84988C6.4082 9.69348 6.46965 9.54355 6.57884 9.43296C6.68804 9.32236 6.83608 9.26013 6.99051 9.2599H13.981C14.1354 9.26013 14.2835 9.32236 14.3927 9.43296C14.5019 9.54355 14.5633 9.69348 14.5636 9.84988V11.6199H6.40797V9.84988ZM15.1825 37.3608C15.0277 37.499 14.8291 37.5764 14.6227 37.5791H6.34884C6.14233 37.5764 5.9436 37.4988 5.78872 37.3605C2.93689 34.8781 1.16508 30.3098 1.16508 25.438C1.16508 19.8033 3.45273 14.948 6.72254 12.8001H9.90322V18.405C9.90322 18.5615 9.96459 18.7116 10.0738 18.8222C10.1831 18.9328 10.3313 18.995 10.4858 18.995C10.6403 18.995 10.7884 18.9328 10.8977 18.8222C11.0069 18.7116 11.0683 18.5615 11.0683 18.405V12.7998H14.249C17.5188 14.948 19.8064 19.803 19.8064 25.438C19.8064 30.3098 18.0346 34.8775 15.1825 37.3608Z" fill="#9B9B9B"/>
<path id="Vector_3" d="M10.3535 20.4888C8.00266 20.4888 6.09033 22.6745 6.09033 25.3609C6.09033 28.0474 8.00266 30.2331 10.3535 30.2331C12.7043 30.2331 14.6166 28.0471 14.6166 25.3609C14.6166 22.6748 12.7043 20.4888 10.3535 20.4888ZM10.3535 29.1504C8.67441 29.1504 7.30838 27.4506 7.30838 25.3609C7.30838 23.2713 8.67441 21.5715 10.3535 21.5715C12.0326 21.5715 13.3986 23.2713 13.3986 25.3609C13.3986 27.4506 12.0326 29.1504 10.3535 29.1504Z" fill="#9B9B9B"/>
<path id="Vector_4" d="M24.8272 24.524H22.9048C22.7382 24.524 22.5785 24.5902 22.4607 24.7079C22.3429 24.8257 22.2768 24.9855 22.2768 25.152C22.2768 25.3186 22.3429 25.4783 22.4607 25.5961C22.5785 25.7139 22.7382 25.78 22.9048 25.78H29.3414H30.4414H37.9781C38.1446 25.78 38.3044 25.7139 38.4221 25.5961C38.5399 25.4783 38.6061 25.3186 38.6061 25.152C38.6061 24.9855 38.5399 24.8257 38.4221 24.7079C38.3044 24.5902 38.1446 24.524 37.9781 24.524H36.0556L40.0931 17.4784C40.1435 17.3905 40.1719 17.2917 40.1758 17.1904C40.1797 17.0892 40.1591 16.9885 40.1156 16.8969C40.0722 16.8054 40.0072 16.7257 39.9263 16.6647C39.8454 16.6037 39.7509 16.5632 39.6509 16.5467L37.3224 16.1606L38.2557 12.9619C38.2971 12.8331 38.3033 12.6955 38.2735 12.5636C38.2437 12.4316 38.1791 12.31 38.0864 12.2114C38.0062 12.1252 37.9067 12.0593 37.796 12.0192C37.6853 11.9791 37.5666 11.966 37.4498 11.9808C36.2356 12.0009 35.6115 12.7408 35.1089 13.3371C34.6185 13.9185 34.3103 14.2474 33.6772 14.2474C33.2791 14.2474 32.9864 13.9007 32.5517 13.3297C32.0466 12.6666 31.3562 11.7574 30.1257 12.0036C29.3228 12.1639 28.8148 12.7888 28.3666 13.3403C28.1017 13.6662 27.8875 13.9182 27.6783 14.0729C27.5251 14.1862 27.3747 14.2474 27.209 14.2474C26.5763 14.2472 26.2683 13.9184 25.7784 13.3371C25.2764 12.7416 24.6535 12.0029 23.4426 11.9808C23.301 11.9584 23.1559 11.9772 23.0246 12.0348C22.8933 12.0924 22.7813 12.1865 22.7019 12.3058C22.6448 12.401 22.6086 12.5072 22.5958 12.6174C22.5829 12.7276 22.5936 12.8393 22.6272 12.9451L23.562 16.1603L21.2319 16.5467C21.1319 16.5632 21.0374 16.6037 20.9565 16.6647C20.8756 16.7257 20.8106 16.8054 20.7672 16.8969C20.7237 16.9885 20.7031 17.0892 20.707 17.1904C20.7109 17.2917 20.7393 17.3905 20.7897 17.4784L24.8272 24.524ZM38.554 17.638L35.1663 23.5496L36.968 17.3751L38.554 17.638ZM24.8179 14.1467C25.3274 14.7511 25.9615 15.5033 27.2088 15.5034C28.2271 15.5034 28.8449 14.7433 29.3414 14.1324C29.6864 13.708 30.0122 13.3072 30.3716 13.2355C30.7882 13.1517 31.0397 13.4178 31.5523 14.0907C32.0316 14.7201 32.6281 15.5034 33.6772 15.5034C34.925 15.5034 35.5594 14.7512 36.069 14.1467C36.2782 13.867 36.5295 13.6215 36.814 13.4188L33.5752 24.5183L32.9743 24.5188L33.0919 24.0482C33.1323 23.8866 33.1068 23.7156 33.0211 23.5728C32.9354 23.4299 32.7964 23.327 32.6348 23.2866C32.4732 23.2463 32.3022 23.2717 32.1594 23.3575C32.0165 23.4432 31.9136 23.5821 31.8732 23.7437L31.6792 24.5199L31.0695 24.5204V22.6399C31.0695 22.4734 31.0033 22.3136 30.8855 22.1958C30.7677 22.0781 30.608 22.0119 30.4414 22.0119C30.2748 22.0119 30.1151 22.0781 29.9973 22.1958C29.8795 22.3136 29.8134 22.4734 29.8134 22.6399V24.5215L29.2041 24.522L29.0096 23.7437C28.9692 23.5821 28.8663 23.4432 28.7235 23.3575C28.5806 23.2717 28.4096 23.2463 28.248 23.2867C28.0864 23.327 27.9474 23.43 27.8617 23.5728C27.776 23.7156 27.7505 23.8866 27.7909 24.0483L27.9096 24.5231L27.3013 24.5236L24.0729 13.4184C24.3574 13.6211 24.6088 13.8668 24.8179 14.1467ZM23.9151 17.375L25.7035 23.5269L22.3288 17.638L23.9151 17.375Z" fill="#9B9B9B"/>
<path id="Vector_5" d="M35.5624 35.1056H25.3397C25.2289 35.1056 25.1217 35.0575 25.0371 34.9699C24.9525 34.8824 24.896 34.761 24.8776 34.6273L24.3665 30.9015C24.356 30.8195 24.3601 30.7356 24.3784 30.6557C24.3968 30.5758 24.429 30.5016 24.4728 30.4382C24.5166 30.3749 24.5711 30.3238 24.6325 30.2884C24.6939 30.2531 24.7608 30.2343 24.8286 30.2334H36.0735C36.1413 30.2343 36.2082 30.2531 36.2696 30.2885C36.331 30.3238 36.3855 30.3749 36.4293 30.4383C36.4731 30.5016 36.5053 30.5758 36.5237 30.6557C36.542 30.7356 36.5461 30.8195 36.5356 30.9015L36.0245 34.6273C36.0062 34.761 35.9497 34.8824 35.8651 34.9699C35.7805 35.0575 35.6732 35.1056 35.5624 35.1056Z" fill="#9B9B9B"/>
</g>
</g>
<defs>
<clipPath id="clip0_613_245">
<rect width="40" height="40" fill="white"/>
</clipPath>
</defs>
</svg>
