<svg width="40" height="40" viewBox="0 0 40 40" fill="none" xmlns="http://www.w3.org/2000/svg">
<g id="Thumbs Up" clip-path="url(#clip0_613_261)">
<path id="Vector" d="M11.3521 27.5217H7.62174C7.45684 27.5217 7.2987 27.5905 7.1821 27.7128C7.0655 27.8351 7 28.0009 7 28.1739V35.3478C7 35.5208 7.0655 35.6867 7.1821 35.809C7.2987 35.9313 7.45684 36 7.62174 36H11.3521M11.3521 27.5217V36M11.3521 27.5217L14.4608 21C14.7874 21 15.1108 21.0675 15.4125 21.1986C15.7143 21.3297 15.9884 21.5218 16.2194 21.7641C16.4503 22.0063 16.6335 22.2939 16.7585 22.6104C16.8834 22.9269 16.9478 23.2661 16.9478 23.6087V25.5652H21.7565C21.9328 25.5652 22.1071 25.6045 22.2679 25.6806C22.4286 25.7567 22.572 25.8677 22.6887 26.0063C22.8054 26.145 22.8927 26.3081 22.9447 26.4848C22.9967 26.6615 23.0123 26.8478 22.9904 27.0314L22.0578 34.8574C22.0202 35.1729 21.8741 35.4631 21.6469 35.6735C21.4196 35.8839 21.127 36 20.8239 36H11.3521" stroke="#9B9B9B" stroke-width="1.5" stroke-linecap="round" stroke-linejoin="round"/>
<path id="Vector_2" d="M28.6479 12.4783H32.3783C32.5432 12.4783 32.7013 12.4095 32.8179 12.2872C32.9345 12.1649 33 11.9991 33 11.8261V4.65217C33 4.47921 32.9345 4.31332 32.8179 4.19102C32.7013 4.06871 32.5432 4 32.3783 4H28.6479M28.6479 12.4783V4M28.6479 12.4783L25.5392 19C25.2126 19 24.8892 18.9325 24.5875 18.8014C24.2857 18.6703 24.0116 18.4782 23.7806 18.2359C23.5497 17.9937 23.3665 17.7061 23.2415 17.3896C23.1166 17.0731 23.0522 16.7339 23.0522 16.3913V14.4348H18.2435C18.0672 14.4348 17.8929 14.3955 17.7321 14.3194C17.5714 14.2433 17.428 14.1323 17.3113 13.9937C17.1946 13.855 17.1073 13.6919 17.0553 13.5152C17.0033 13.3385 16.9877 13.1522 17.0096 12.9686L17.9422 5.14256C17.9798 4.8271 18.1259 4.5369 18.3531 4.32651C18.5804 4.11611 18.873 4 19.1761 4H28.6479" stroke="#9B9B9B" stroke-width="1.5" stroke-linecap="round" stroke-linejoin="round"/>
</g>
<defs>
<clipPath id="clip0_613_261">
<rect width="40" height="40" fill="white"/>
</clipPath>
</defs>
</svg>
